IKResults
version=1
nRows=8
nColumns=63
inDegrees=yes

Units are S.I. units (second, meters, Newtons, ...)
If the header above contains a line with 'inDegrees', this indicates whether rotational values are in degrees (yes) or radians (no).

endheader
time	pelvis_tilt	pelvis_list	pelvis_rotation	pelvis_tx	pelvis_ty	pelvis_tz	hip_flexion_r	hip_adduction_r	hip_rotation_r	knee_angle_r	knee_angle_r_beta	ankle_angle_r	subtalar_angle_r	mtp_angle_r	hip_flexion_l	hip_adduction_l	hip_rotation_l	knee_angle_l	knee_angle_l_beta	ankle_angle_l	subtalar_angle_l	mtp_angle_l	L5_S1_Flex_Ext	L5_S1_Lat_Bending	L5_S1_axial_rotation	L4_L5_Flex_Ext	L4_L5_Lat_Bending	L4_L5_axial_rotation	L3_L4_Flex_Ext	L3_L4_Lat_Bending	L3_L4_axial_rotation	L2_L3_Flex_Ext	L2_L3_Lat_Bending	L2_L3_axial_rotation	L1_L2_Flex_Ext	L1_L2_Lat_Bending	L1_L2_axial_rotation	L1_T12_Flex_Ext	L1_T12_Lat_Bending	L1_T12_axial_rotation	Abs_r3	Abs_r2	Abs_r1	Abs_t1	Abs_t2	neck_flexion	neck_bending	neck_rotation	arm_flex_r	arm_add_r	arm_rot_r	elbow_flex_r	pro_sup_r	wrist_flex_r	wrist_dev_r	arm_flex_l	arm_add_l	arm_rot_l	elbow_flex_l	pro_sup_l	wrist_flex_l	wrist_dev_l
      2.03333333	     54.89975801	      0.50779895	      0.11638663	     -0.84637261	      0.36108318	     -0.51178496	     55.44320026	     -8.99692860	      8.74853928	     65.22674348	      1.13842143	    -18.75757173	    -15.42828244	      0.00000000	     55.83655979	    -18.43404466	     -4.33149199	     64.77246774	      1.13049283	    -19.44266746	    -18.82065090	      0.00000000	    -11.26496699	     -0.45561815	      0.26863375	    -20.92017021	     -0.60597214	      0.28542336	    -18.50721428	     -1.10778998	      0.28542336	    -12.87473078	     -1.10778998	      0.23505453	    -10.46064835	     -0.92909654	      0.21826492	     -6.43680214	     -0.70575252	      0.20147531	    -80.46453274	     -5.15404367	      1.49406031	      0.00000000	      0.00000000	     28.51604179	     -5.26828157	    -40.10565626	     47.87547919	    -21.40859883	     -6.38882923	     23.11461868	     89.99559364	      0.00000000	      0.00000000	     46.49095781	    -26.10845684	      6.39772208	     43.75392534	     89.99559364	      0.00000000	      0.00000000
      2.06666667	     57.38806251	      0.94291208	      0.75308083	     -0.86604245	      0.36106270	     -0.51101879	     51.86273909	     -9.79992188	      9.24303184	     61.89045750	      1.08019226	    -17.61859968	    -13.80292142	      0.00000000	     52.24879414	    -16.83415894	     -2.94687552	     60.96971568	      1.06412228	    -19.12617884	    -18.64061419	      0.00000000	    -11.18208650	     -0.41737090	      0.04431976	    -20.76625285	     -0.55510330	      0.04708974	    -18.37104992	     -1.01479561	      0.04708974	    -12.78000667	     -1.01479561	      0.03877979	    -10.38368553	     -0.85110274	      0.03600980	     -6.38944423	     -0.64650753	      0.03323982	    -79.87252570	     -4.72138312	      0.24649321	      0.00000000	      0.00000000	     28.51125607	     -4.69632142	    -36.18766715	     46.96230274	    -19.77558160	    -15.18221146	     23.47985779	     89.99559364	      0.00000000	      0.00000000	     48.63876585	    -27.82981583	     10.40484336	     41.31696039	     89.99559364	      0.00000000	      0.00000000
      2.10000000	     59.37398374	      0.95240180	      0.91359624	     -0.88213281	      0.35984443	     -0.50992239	     48.99605864	     -9.88514997	      9.80617419	     58.91644117	      1.02828588	    -17.24511001	    -12.35649379	      0.00000000	     49.45170897	    -15.94543027	     -1.06597894	     58.04640121	      1.01310082	    -18.70199921	    -18.50662801	      0.00000000	    -11.07112342	     -0.38982389	     -0.07431188	    -20.56018331	     -0.51846578	     -0.07895637	    -18.18874867	     -0.94781781	     -0.07895637	    -12.65318696	     -0.94781781	     -0.06502289	    -10.28064521	     -0.79492888	     -0.06037840	     -6.32603992	     -0.60383721	     -0.05573391	    -79.07992749	     -4.40976583	     -0.41330038	      0.00000000	      0.00000000	     28.50482410	     -3.97702521	    -33.79385047	     46.10202126	    -20.06897658	    -15.34793328	     24.25114135	     89.99559364	      0.00000000	      0.00000000	     49.63949962	    -28.79329868	     10.70766155	     39.92923415	     89.99559364	      0.00000000	      0.00000000
      2.13333333	     61.80160030	      1.01667312	      1.04522567	     -0.89596605	      0.35864779	     -0.50898009	     45.64761908	    -10.21699586	     10.07216491	     56.31009367	      0.98279654	    -16.45899913	    -10.94389436	      0.00000000	     46.13219456	    -15.18456228	      0.75096519	     55.69315793	      0.97202898	    -17.64659743	    -18.34731375	      0.00000000	    -11.06891181	     -0.36760618	     -0.21416973	    -20.55607612	     -0.48891623	     -0.22755534	    -18.18511521	     -0.89379768	     -0.22755534	    -12.65065931	     -0.89379768	     -0.18739852	    -10.27859151	     -0.74962253	     -0.17401291	     -6.32477621	     -0.56942198	     -0.16062730	    -79.06413016	     -4.15843469	     -1.19114780	      0.00000000	      0.00000000	     28.49817376	     -3.44028395	    -31.13475865	     45.73841048	    -20.47571681	    -15.68775681	     24.51295801	     89.99559364	      0.00000000	      0.00000000	     50.04234092	    -30.06529479	     11.14728124	     39.22126147	     89.99559364	      0.00000000	      0.00000000
      2.16666667	     63.92124816	      1.08709166	      1.01259714	     -0.90689251	      0.35654512	     -0.50790630	     42.79047813	    -10.53003610	     10.32846988	     54.13329696	      0.94480427	    -16.38118665	    -10.01234371	      0.00000000	     43.11371708	    -14.72263286	      2.27922018	     53.71845728	      0.93756395	    -16.76705184	    -18.23112145	      0.00000000	    -11.05688486	     -0.35775867	     -0.31503607	    -20.53374088	     -0.47581903	     -0.33472582	    -18.16535614	     -0.86985442	     -0.33472582	    -12.63691371	     -0.86985442	     -0.27565656	    -10.26742328	     -0.72954147	     -0.25596681	     -6.31790401	     -0.55416818	     -0.23627705	    -78.97822288	     -4.04703760	     -1.75213611	      0.00000000	      0.00000000	     28.49019500	     -2.97500867	    -29.11294884	     45.17608456	    -21.02856738	    -16.22238906	     24.68477255	     89.99559364	      0.00000000	      0.00000000	     49.46273821	    -31.19264248	     10.70926962	     39.26457159	     89.99559364	      0.00000000	      0.00000000
      2.20000000	     65.83567733	      1.11091663	      0.81169086	     -0.91530266	      0.35445171	     -0.50682730	     40.13825220	    -10.90950775	     10.28728377	     52.20805420	      0.91120244	    -16.80150301	     -9.76088973	      0.00000000	     40.17835811	    -14.53628988	      3.55275035	     51.88785388	      0.90561389	    -16.31184362	    -18.20525370	      0.00000000	    -11.05002823	     -0.35466814	     -0.35488622	    -20.52100743	     -0.47170863	     -0.37706660	    -18.15409138	     -0.86234012	     -0.37706660	    -12.62907726	     -0.86234012	     -0.31052544	    -10.26105621	     -0.72323927	     -0.28834505	     -6.31398613	     -0.54938095	     -0.26616466	    -78.92924664	     -4.01207694	     -1.97377066	      0.00000000	      0.00000000	     28.47931011	     -2.44596408	    -27.58874419	     43.93009545	    -21.70795839	    -16.87969245	     25.44531920	     89.99559364	      0.00000000	      0.00000000	     47.76176903	    -31.79757506	      8.55356788	     39.98829580	     89.99559364	      0.00000000	      0.00000000
      2.23333333	     67.43463435	      1.11047629	      0.63958217	     -0.92134264	      0.35260368	     -0.50597598	     37.71856663	    -11.40546880	     10.04796355	     50.48514230	      0.88113196	    -17.61289506	    -10.27839794	      0.00000000	     37.46038339	    -14.52719613	      4.48541360	     50.00846540	      0.87281238	    -16.50534933	    -18.23663712	      0.00000000	    -11.03009068	     -0.34463479	     -0.36523034	    -20.48398140	     -0.45836426	     -0.38805723	    -18.12133597	     -0.83794502	     -0.38805723	    -12.60629063	     -0.83794502	     -0.31957655	    -10.24254220	     -0.70277925	     -0.29674965	     -6.30259381	     -0.53383928	     -0.27392275	    -78.78683470	     -3.89857762	     -2.03130157	      0.00000000	      0.00000000	     28.46585443	     -1.99380905	    -26.38295194	     41.79562834	    -22.50101759	    -17.21552944	     26.93091302	     89.99559364	      0.00000000	      0.00000000	     45.02223417	    -31.91786180	      5.23466643	     41.15722177	     89.99559364	      0.00000000	      0.00000000
      2.26666667	     68.54881496	      0.92363608	      0.55789837	     -0.92489192	      0.35087303	     -0.50555560	     35.67296131	    -11.91493176	      9.45323530	     48.87187236	      0.85297508	    -18.79369730	    -11.27664039	      0.00000000	     35.31013924	    -14.77896434	      5.26270063	     48.19312874	      0.84112877	    -17.38290122	    -18.35810550	      0.00000000	    -10.96654726	     -0.31107687	     -0.35534838	    -20.36597491	     -0.41373223	     -0.37755765	    -18.01694049	     -0.75635229	     -0.37755765	    -12.53366686	     -0.75635229	     -0.31092983	    -10.18353578	     -0.63434794	     -0.28872056	     -6.26628510	     -0.48185806	     -0.26651128	    -78.33295039	     -3.51896372	     -1.97634107	      0.00000000	      0.00000000	     28.45025709	     -1.50984359	    -25.11181780	     38.79877838	    -23.41552241	    -16.82618285	     29.05828180	     89.99559364	      0.00000000	      0.00000000	     41.24189731	    -31.60716450	      1.08586663	     42.72004546	     89.99559364	      0.00000000	      0.00000000
